<svg width="110" height="23" viewBox="0 0 110 23" fill="none" xmlns="http://www.w3.org/2000/svg">
<path d="M6.216 17.308C2.828 17.308 0.32 14.866 0.32 11.566V1.094H3.444V6.814C4.258 6.198 5.292 5.802 6.392 5.802C9.78 5.802 12.112 8.178 12.112 11.566C12.112 14.712 9.582 17.308 6.216 17.308ZM6.216 14.36C7.822 14.36 8.988 13.106 8.988 11.566C8.988 10.026 7.822 8.75 6.216 8.75C4.61 8.75 3.444 10.026 3.444 11.566C3.444 13.106 4.61 14.36 6.216 14.36ZM13.6489 1.094H16.7729V17H13.6489V1.094ZM24.1821 17.286C20.8381 17.286 18.2861 14.69 18.2861 11.522C18.2861 8.376 20.8601 5.78 24.1821 5.78C27.5481 5.78 30.1001 8.398 30.1001 11.522C30.1001 14.69 27.5261 17.286 24.1821 17.286ZM24.1821 14.36C25.7881 14.36 26.9761 13.084 26.9761 11.544C26.9761 10.004 25.7881 8.728 24.1821 8.728C22.5761 8.728 21.4101 10.004 21.4101 11.544C21.4101 13.084 22.5761 14.36 24.1821 14.36ZM36.2699 22.302C33.7179 22.302 31.7599 21.18 30.7699 19.156L33.3659 17.748C33.8499 18.694 34.7519 19.442 36.2259 19.442C38.0739 19.442 39.3279 18.144 39.3279 16.01V15.812C38.7339 16.56 37.6779 17.132 36.1379 17.132C33.0799 17.132 30.6379 14.756 30.6379 11.522C30.6379 8.376 33.1899 5.802 36.5339 5.802C39.9439 5.802 42.4519 8.244 42.4519 11.522V15.922C42.4519 19.794 39.8119 22.302 36.2699 22.302ZM36.4899 14.184C38.0519 14.184 39.2839 13.018 39.2839 11.456C39.2839 9.894 38.0519 8.75 36.4899 8.75C34.9499 8.75 33.7179 9.894 33.7179 11.456C33.7179 13.018 34.9499 14.184 36.4899 14.184ZM48.3448 17.308C46.0788 17.308 44.4948 16.472 43.5928 14.844L45.9028 13.546C46.3648 14.426 47.0908 14.8 48.1908 14.8C49.2028 14.8 49.8408 14.404 49.8408 13.766C49.8408 12.006 43.8568 13.524 43.8568 9.322C43.8568 7.364 45.5728 5.824 48.2568 5.824C50.5888 5.824 51.9968 6.924 52.6568 8.178L50.3468 9.476C49.9948 8.684 49.2028 8.31 48.3228 8.31C47.5528 8.31 46.9808 8.684 46.9808 9.256C46.9808 11.016 52.9648 9.608 52.9648 13.7C52.9648 15.9 50.8308 17.308 48.3448 17.308ZM57.2538 22.016H54.1298V11.522C54.1298 8.244 56.6378 5.802 60.0258 5.802C63.3918 5.802 65.9218 8.398 65.9218 11.522C65.9218 14.932 63.5898 17.308 60.2018 17.308C59.1018 17.308 58.0678 16.912 57.2538 16.296V22.016ZM60.0258 14.36C61.6318 14.36 62.7978 13.084 62.7978 11.544C62.7978 10.004 61.6318 8.75 60.0258 8.75C58.4198 8.75 57.2538 10.004 57.2538 11.544C57.2538 13.084 58.4198 14.36 60.0258 14.36ZM70.1427 17H67.0187V10.752C67.0187 7.958 68.6027 5.824 71.8367 5.824C72.5407 5.824 73.3107 5.956 73.8607 6.198V9.234C73.3327 8.926 72.6947 8.772 72.1227 8.772C70.8907 8.772 70.1427 9.564 70.1427 10.862V17ZM75.894 4.482C74.838 4.482 73.958 3.624 73.958 2.546C73.958 1.49 74.838 0.609999 75.894 0.609999C76.95 0.609999 77.808 1.49 77.808 2.546C77.808 3.624 76.95 4.482 75.894 4.482ZM74.332 6.11H77.456V17H74.332V6.11ZM85.1951 8.838C83.4351 8.838 82.6431 10.268 82.6431 11.94V17H79.5191V11.566C79.5191 8.398 81.3891 5.802 85.1951 5.802C89.0011 5.802 90.9151 8.376 90.9151 11.566V17H87.7911V11.94C87.7911 10.268 86.9771 8.838 85.1951 8.838ZM97.6189 22.302C95.0669 22.302 93.1089 21.18 92.1189 19.156L94.7149 17.748C95.1989 18.694 96.1009 19.442 97.5749 19.442C99.423 19.442 100.677 18.144 100.677 16.01V15.812C100.083 16.56 99.0269 17.132 97.487 17.132C94.4289 17.132 91.9869 14.756 91.9869 11.522C91.9869 8.376 94.5389 5.802 97.8829 5.802C101.293 5.802 103.801 8.244 103.801 11.522V15.922C103.801 19.794 101.161 22.302 97.6189 22.302ZM97.839 14.184C99.4009 14.184 100.633 13.018 100.633 11.456C100.633 9.894 99.4009 8.75 97.839 8.75C96.2989 8.75 95.0669 9.894 95.0669 11.456C95.0669 13.018 96.2989 14.184 97.839 14.184Z" fill="#010626"/>
<path d="M107.692 17.242C106.614 17.242 105.756 16.362 105.756 15.306C105.756 14.25 106.614 13.37 107.692 13.37C108.748 13.37 109.606 14.25 109.606 15.306C109.606 16.362 108.748 17.242 107.692 17.242Z" fill="#056BF1"/>
</svg>
